<svg xmlns="http://www.w3.org/2000/svg" height="151.181" width="151.181" xml:space="preserve"><defs><clipPath id="a" clipPathUnits="userSpaceOnUse"><path d="M0 113.386h113.386V0H0Z"/></clipPath></defs><g clip-path="url(#a)" transform="matrix(1.33333 0 0 -1.33333 0 151.181)"><path style="fill:#d9242c;fill-opacity:1;fill-rule:nonzero;stroke:none" d="M0 0c0 31.311-25.382 56.693-56.693 56.693-31.311 0-56.693-25.382-56.693-56.693 0-31.311 25.382-56.693 56.693-56.693C-25.382-56.693 0-31.311 0 0" transform="translate(113.386 56.693)"/><path style="fill:#fff;fill-opacity:1;fill-rule:nonzero;stroke:none" d="M0 0c-6.372 0-11.537-5.165-11.537-11.537 0-6.371 5.165-11.536 11.537-11.536 6.372 0 11.536 5.165 11.536 11.536C11.536-5.165 6.372 0 0 0" transform="translate(64.978 38.028)"/><path style="fill:#fff;fill-opacity:1;fill-rule:nonzero;stroke:none" d="m0 0-37.26 21.512-16.659-9.618v-73.556l16.659 9.619V2.275l21.858-12.619-18.75-10.826 8.329-14.428L0-20.689C7.963-16.091 7.963-4.598 0 0" transform="translate(85.578 78.62)"/></g></svg>
